<svg width="132" height="132" viewBox="0 0 132 132" fill="none" xmlns="http://www.w3.org/2000/svg">
<path d="M129.5 66C129.5 101.07 101.07 129.5 66 129.5C30.9299 129.5 2.5 101.07 2.5 66C2.5 30.9299 30.9299 2.5 66 2.5C101.07 2.5 129.5 30.9299 129.5 66Z" stroke="white" stroke-width="5"/>
<path d="M87.6552 36C86.7919 36 85.97 36.3914 85.2794 37.082L83.6265 38.6635L93.3368 48.3739L94.9207 46.7209C96.3019 45.3397 96.3019 43.2816 94.9207 41.9003L90.1 37.0797C89.4094 36.3891 88.5162 36 87.6529 36H87.6552ZM82.0426 40.031L79.5241 42.119L89.8836 52.4785L92.1858 50.1764L82.0426 40.0287V40.031ZM78.1567 43.7719L57.3686 64.3482C57.2633 64.4351 57.1663 64.5315 57.0785 64.636L56.9358 64.7074C56.6847 64.9951 56.5112 65.3422 56.4316 65.7157L53.6253 75.571C53.5051 75.9611 53.4934 76.3766 53.5917 76.7728C53.69 77.169 53.8945 77.5309 54.1831 77.8195C54.4718 78.1082 54.8337 78.3127 55.2298 78.4109C55.626 78.5092 56.0415 78.4976 56.4316 78.3773L66.287 75.571C66.6142 75.4934 66.9198 75.3433 67.1812 75.1317C67.4426 74.9201 67.6531 74.6525 67.7972 74.3486L88.2307 54.1315L84.3448 49.9577V50.1741L81.6098 47.4392H81.8262L78.159 43.7719H78.1567ZM37.872 45.3535C37.3386 45.4549 36.8583 45.7416 36.5158 46.1628C36.1734 46.5841 35.9908 47.1128 36.0004 47.6556V93.6979C36.0004 94.3084 36.2429 94.894 36.6746 95.3257C37.1064 95.7575 37.6919 96 38.3025 96H84.3448C84.9553 96 85.5409 95.7575 85.9726 95.3257C86.4043 94.894 86.6469 94.3084 86.6469 93.6979V68.3746C86.6469 67.7641 86.4043 67.1785 85.9726 66.7468C85.5409 66.3151 84.9553 66.0725 84.3448 66.0725C83.7342 66.0725 83.1486 66.3151 82.7169 66.7468C82.2852 67.1785 82.0426 67.7641 82.0426 68.3746V91.3958H40.6046V49.9577H63.6257C64.2363 49.9577 64.8218 49.7152 65.2536 49.2834C65.6853 48.8517 65.9278 48.2662 65.9278 47.6556C65.9278 47.045 65.6853 46.4595 65.2536 46.0278C64.8218 45.596 64.2363 45.3535 63.6257 45.3535H38.3025C38.2304 45.3501 38.1582 45.3501 38.0861 45.3535C38.014 45.3501 37.9418 45.3501 37.8697 45.3535H37.872ZM60.4626 67.9441L63.628 68.1582L63.8444 71.6114L60.679 72.5461L59.4566 71.3259L60.4626 67.9418V67.9441Z" fill="white"/>
</svg>
