<svg width="86" height="86" viewBox="0 0 86 86" fill="none" xmlns="http://www.w3.org/2000/svg">
<path d="M43 20.7778C47.9092 20.7778 51.8889 16.7981 51.8889 11.8889C51.8889 6.97969 47.9092 3 43 3C38.0908 3 34.1111 6.97969 34.1111 11.8889C34.1111 16.7981 38.0908 20.7778 43 20.7778Z" stroke="#0A2342" stroke-width="5" stroke-linecap="round" stroke-linejoin="round"/>
<path d="M11.8889 82.9999C16.7981 82.9999 20.7778 79.0203 20.7778 74.1111C20.7778 69.2019 16.7981 65.2222 11.8889 65.2222C6.97969 65.2222 3 69.2019 3 74.1111C3 79.0203 6.97969 82.9999 11.8889 82.9999Z" stroke="#0A2342" stroke-width="5" stroke-linecap="round" stroke-linejoin="round"/>
<path d="M74.1111 82.9999C79.0203 82.9999 82.9999 79.0203 82.9999 74.1111C82.9999 69.2019 79.0203 65.2222 74.1111 65.2222C69.2019 65.2222 65.2222 69.2019 65.2222 74.1111C65.2222 79.0203 69.2019 82.9999 74.1111 82.9999Z" stroke="#0A2342" stroke-width="5" stroke-linecap="round" stroke-linejoin="round"/>
<path d="M43 65.2223C50.3638 65.2223 56.3333 59.2528 56.3333 51.889C56.3333 44.5252 50.3638 38.5557 43 38.5557C35.6362 38.5557 29.6666 44.5252 29.6666 51.889C29.6666 59.2528 35.6362 65.2223 43 65.2223Z" stroke="#0A2342" stroke-width="5" stroke-linecap="round" stroke-linejoin="round"/>
<path d="M43 20.7778V38.5556" stroke="#0A2342" stroke-width="5" stroke-linecap="round" stroke-linejoin="round"/>
<path d="M19.4442 68.778L31.8887 59.8892" stroke="#0A2342" stroke-width="5" stroke-linecap="round" stroke-linejoin="round"/>
<path d="M66.5555 68.778L54.1111 59.8892" stroke="#0A2342" stroke-width="5" stroke-linecap="round" stroke-linejoin="round"/>
</svg>
