<svg width="80" height="80" viewBox="0 0 80 80" fill="none" xmlns="http://www.w3.org/2000/svg">
<path d="M40 0C17.9232 0 0 17.9232 0 40C0 62.0768 17.9232 80 40 80C62.0368 80 79.9288 62.1408 79.9936 40.1184C79.9977 40.0791 79.9998 40.0395 80 40C80 39.9645 79.9984 39.929 79.9952 39.8936C79.9376 17.8656 62.0416 0 40 0ZM40 2.4C42.2208 2.4 44.392 2.6032 46.5064 2.972C47.0168 4.0888 49.7888 4.3288 46.8504 4.1328C45.7176 5.7488 41.2352 2.4344 38.2504 4.1704C37.3552 5.4312 31.6904 6.788 33.8184 8.8328C36.848 8.2832 33.4848 8.7792 33.5752 10.2832C32.0264 10.8192 29.8264 13.3792 29.8576 10.7592C29.4736 8.8408 31.5872 7.0736 28.1656 8.5112C27.9776 9.556 22.8264 11.5672 25.4032 12.0296C28.1128 10.6696 24.3208 14.188 27.4752 12.8C25.3224 13.776 26.9552 14.8408 25.9672 16.992C22.4848 15.364 20.88 18.4496 20.1512 21.408C20.9768 21.4856 21.2568 21.9168 21.1768 22.432C21.5944 22.4728 22.1848 22.5304 22.4512 22.5544C24.1976 22.4208 25.8056 21.276 26.6392 19.608C28.6256 18.0936 30.2512 17.224 32.6576 17.3376C31.5032 17.1416 29.9632 22.2032 32.3032 20.2872C31.2968 15.9952 36.7672 20.7016 35.5688 20.728C33.5584 21.0256 32.9128 21.5408 34.644 22.992C35.8496 23.9096 36.5904 19.4784 38.064 20.2504C37.868 19.4064 34.4216 16.6904 34.9312 16.8328C35.0488 16.8656 35.3768 17.052 36.0048 17.4472C38.8416 18.34 38.3768 21.9992 40.9528 23.2856C42.7448 25.616 45.5176 21.9344 47.4768 23.0512C47.544 24.5888 49.2784 24.4328 49.2112 22.7856C51.1672 24.2832 49.0032 27.9752 46.2872 26.4984C43.708 27.9848 40.0208 22.968 38.4592 26.7736C37.7632 28.5688 35.38 25.384 34.3936 25.316C30.9496 25.6976 34.256 21.9496 31.8704 21.548C28.796 21.5216 25.6328 22.812 22.672 22.62C21.0616 23.1152 20.0512 23.776 19.0888 24.3704C18.1648 25.7496 16.3488 26.7336 14.4808 29.3736C14.1384 29.9016 13.5432 30.556 12.8344 31.3496C11.8648 34.648 10.6768 37.9496 10.864 41.3816C12.9784 43.612 13.4744 48.9992 17.628 48.572C20.372 49.9896 22.4504 47.5416 25.0232 48.364C25.4976 51.0368 30.5152 49.924 29.1624 52.6C27.7504 55.7968 31.8768 57.3384 32.5512 60.248C34.3128 63.1568 29.8936 66.1888 33.4424 68.692C35.4072 71.948 37.684 76.8944 42.3864 74.9704C46.0448 74.736 48.2824 71.6504 50.5672 69.5456C50.36 65.6848 57.3344 66.1056 55.7736 61.1968C54.8536 60.6176 55.8312 58.2968 55.3256 57.4752C55.8488 56.3992 57.692 53.3344 59.4752 51.8344C62.2088 49.7144 63.3552 46.3976 64.2576 43.1888C63.6992 40.4904 62.4256 43.1312 60.8032 43.0168C56.4864 44.6176 60.9048 41.1608 62.5296 40.1768C64.8224 38.8256 67.0528 36.5208 67.5576 34.0648C69.6824 31.7688 62.4272 29.5384 66.9856 30.2888C69.868 29.7264 71.3464 29.384 72.084 32.144C74.908 33.2608 74.6832 38.3784 76.2736 41.1656C77.0976 40.1496 76.768 40.9392 77.1184 42.1608C78.0384 39.5232 76.1 35.2728 76.7024 31.844C77.297 34.522 77.598 37.2568 77.6 40C77.6 60.78 60.78 77.6 40 77.6C19.22 77.6 2.4 60.78 2.4 40C2.4 23.8448 12.568 10.088 26.856 4.7624C28.2432 4.3656 29.632 3.9728 30.9904 3.492C33.9387 2.76674 36.9638 2.40008 40 2.4ZM48.2344 3.3144C48.6336 3.4024 49.0344 3.4888 49.428 3.5904C49.3368 4.1944 48.8296 3.82 48.2344 3.3144ZM28.1344 4.9752C27.216 4.992 26.1688 5.3328 26.4408 6.184C26.9448 6.3696 27.4688 6.232 27.9624 6.1112C30.284 5.4648 29.3152 4.9528 28.1344 4.9752ZM39.4248 7.9816C40.6472 7.8016 39.4928 11.328 37.6 10.4184C34.4976 10.7392 38.0672 10.2224 38.18 8.7984C38.7352 8.2624 39.1432 8.0224 39.4248 7.9816ZM56.6168 14.964C56.8488 14.992 56.9192 15.2744 56.5984 15.9472C56.3368 16.8096 60.5424 19.6024 60.2816 21.3816C56.5472 22.3616 58.8816 18.7208 56.4496 17.98C53.78 17.096 55.9216 14.8816 56.6176 14.964H56.6168ZM45.7856 15.6624C47.1728 17.5208 49.3376 16.0632 51.3592 17.572C53.8328 20.068 47.46 17.244 46.3528 18.6832C43.048 19.7 44.6704 16.6752 45.7856 15.6624ZM13.4688 27.0032C13.2336 26.968 13.0408 27.1312 12.8704 27.7952C13.4384 27.8248 13.8624 27.8888 14.1672 27.9856L14.3528 27.4112C13.9984 27.2832 13.7104 27.0392 13.4688 27.0032ZM60.172 27.4096C60.716 29.2968 64.944 28.9976 63.92 30.7656L63.4376 31.1064C62.612 30.5664 59.1776 28.2904 60.172 27.4096ZM50.1424 29.832C52.0928 31.1624 53.4904 33.888 54.7376 36.024C56.4512 37.2432 56.5056 39.2024 57.6176 40.7432C57.1632 41.3192 56.2752 40.2688 56.0936 39.8952C54.608 38.856 53.3816 36.2152 52.3312 34.1056C51.6712 32.6432 50.0608 31.3096 50.1424 29.832ZM61.8112 60.9552C61.6336 60.9432 61.3632 61.1512 60.9816 61.6744C58.2272 63.704 56.0408 66.1192 55.8776 69.6024C57.7856 70.4696 59.4024 66.9744 60.428 65.7544C61.6032 65.1856 62.5792 61.0072 61.8112 60.9552Z" fill="#0A2342"/>
</svg>
