<svg width="132" height="132" viewBox="0 0 132 132" fill="none" xmlns="http://www.w3.org/2000/svg">
<path d="M129.5 66C129.5 101.07 101.07 129.5 66 129.5C30.9299 129.5 2.5 101.07 2.5 66C2.5 30.9299 30.9299 2.5 66 2.5C101.07 2.5 129.5 30.9299 129.5 66Z" stroke="white" stroke-width="5"/>
<path d="M47.0211 42.7716C58.8052 33.1145 76.2202 33.7865 87.2213 44.7876C98.9363 56.5026 98.9363 75.4987 87.2213 87.2137C75.5062 98.9288 56.5102 98.9288 44.7951 87.2137C41.2 83.6235 38.5763 79.1785 37.1705 74.296C35.7646 69.4136 35.6227 64.2539 36.7581 59.3016L36.9891 58.3626L42.7911 59.8926C41.3527 65.3594 41.8902 71.1585 44.3088 76.2678C46.7273 81.3772 50.8718 85.4688 56.0117 87.8217C61.1516 90.1746 66.9571 90.6378 72.405 89.1295C77.8529 87.6212 82.5936 84.2383 85.7916 79.5769C88.9895 74.9156 90.4395 69.2751 89.886 63.6494C89.3325 58.0237 86.811 52.7739 82.7659 48.8253C78.7207 44.8766 73.4117 42.4826 67.7742 42.065C62.1368 41.6474 56.5329 43.233 51.9502 46.5426L51.2872 47.0406L54.3382 50.0916L40.5501 53.2716L43.7301 39.4836L47.0181 42.7716H47.0211ZM69.0082 48.0006V54.0006H76.5082V60.0006H60.0082C59.6333 59.9999 59.2718 60.1396 58.9948 60.3922C58.7178 60.6447 58.5454 60.9918 58.5116 61.3651C58.4777 61.7384 58.5848 62.1109 58.8118 62.4091C59.0389 62.7074 59.3693 62.9099 59.7382 62.9766L60.0082 63.0006H72.0082C73.9974 63.0006 75.905 63.7908 77.3115 65.1973C78.7181 66.6039 79.5083 68.5115 79.5083 70.5007C79.5083 72.4898 78.7181 74.3975 77.3115 75.804C75.905 77.2105 73.9974 78.0007 72.0082 78.0007H69.0082V84.0007H63.0082V78.0007H55.5082V72.0007H72.0082C72.3831 72.0014 72.7446 71.8617 73.0216 71.6091C73.2986 71.3566 73.471 71.0095 73.5049 70.6362C73.5387 70.2629 73.4316 69.8904 73.2046 69.5922C72.9775 69.2939 72.6471 69.0914 72.2782 69.0247L72.0082 69.0007H60.0082C58.0191 69.0007 56.1114 68.2105 54.7049 66.8039C53.2983 65.3974 52.5082 63.4898 52.5082 61.5006C52.5082 59.5115 53.2983 57.6038 54.7049 56.1973C56.1114 54.7908 58.0191 54.0006 60.0082 54.0006H63.0082V48.0006H69.0082Z" fill="white"/>
</svg>
