<svg width="80" height="80" viewBox="0 0 80 80" fill="none" xmlns="http://www.w3.org/2000/svg">
<mask id="path-1-inside-1_1226_7" fill="white">
<path d="M40 80C62.092 80 80 62.092 80 40C80 17.908 62.092 0 40 0C17.908 0 0 17.908 0 40C0 62.092 17.908 80 40 80ZM20 40L36 52L56 24"/>
</mask>
<path d="M36 52L33 56L37.0941 59.0706L40.0687 54.9062L36 52ZM40 85C64.8534 85 85 64.8534 85 40H75C75 59.3306 59.3306 75 40 75V85ZM85 40C85 15.1466 64.8534 -5 40 -5V5C59.3306 5 75 20.6694 75 40H85ZM40 -5C15.1466 -5 -5 15.1466 -5 40H5C5 20.6694 20.6694 5 40 5V-5ZM-5 40C-5 64.8534 15.1466 85 40 85V75C20.6694 75 5 59.3306 5 40H-5ZM17 44L33 56L39 48L23 36L17 44ZM40.0687 54.9062L60.0687 26.9062L51.9313 21.0938L31.9313 49.0938L40.0687 54.9062Z" fill="#0A2342" mask="url(#path-1-inside-1_1226_7)"/>
</svg>
