<svg width="81" height="80" viewBox="0 0 81 80" fill="none" xmlns="http://www.w3.org/2000/svg">
<path d="M68.8688 54.0442H68.4279L68.3727 54.4817C67.5014 61.3914 64.1385 67.7456 58.9149 72.3519C53.8165 76.8479 47.2877 79.3769 40.502 79.4956V73.2213C46.2403 73.0929 51.7164 70.7574 55.7841 66.6898C59.9697 62.5041 62.3212 56.8271 62.3212 50.9077V29.0884C62.3212 23.169 59.9697 17.492 55.7841 13.3063C51.5984 9.12066 45.9214 6.76917 40.002 6.76917C34.0825 6.76917 28.4055 9.12066 24.2199 13.3063C20.0342 17.492 17.6827 23.169 17.6827 29.0884V54.0442H7.27308C5.47675 54.0442 3.75399 53.3306 2.48379 52.0604C1.21359 50.7902 0.5 49.0675 0.5 47.2711V32.725C0.5 30.9286 1.21359 29.2059 2.48379 27.9357C3.75399 26.6655 5.47675 25.9519 7.27308 25.9519H11.1351H11.5759L11.6312 25.5145C12.5033 18.6055 15.8667 12.2522 21.0901 7.64667C26.3136 3.04116 33.0381 0.5 40.002 0.5C46.9658 0.5 53.6903 3.04116 58.9138 7.64667C64.1372 12.2522 67.5006 18.6055 68.3728 25.5145L68.428 25.9519H68.8688H72.7308C74.5272 25.9519 76.2499 26.6655 77.5201 27.9357C78.7903 29.2059 79.5039 30.9286 79.5039 32.725V47.2711C79.5039 49.0675 78.7903 50.7902 77.5201 52.0604C76.2499 53.3306 74.5272 54.0442 72.7308 54.0442H68.8688ZM51.4044 48.2794L54.7299 53.6001C50.2875 56.276 45.1951 57.6887 40.0027 57.6807L40.0012 57.6807C34.8088 57.6887 29.7165 56.276 25.2741 53.6001L28.5995 48.2794C32.0452 50.3314 35.9853 51.414 40.002 51.4077C44.0186 51.414 47.9587 50.3314 51.4044 48.2794Z" fill="#0A2342" stroke="black"/>
</svg>
