<svg width="132" height="132" viewBox="0 0 132 132" fill="none" xmlns="http://www.w3.org/2000/svg">
<path d="M129.5 66C129.5 101.07 101.07 129.5 66 129.5C30.9299 129.5 2.5 101.07 2.5 66C2.5 30.9299 30.9299 2.5 66 2.5C101.07 2.5 129.5 30.9299 129.5 66Z" stroke="white" stroke-width="5"/>
<path d="M89.5714 85.2856H76.7142C75.0093 85.2856 73.3741 85.9629 72.1685 87.1685C70.9629 88.3741 70.2856 90.0093 70.2856 91.7142V95.9999H74.5714V91.7142C74.5714 91.1459 74.7971 90.6008 75.199 90.199C75.6008 89.7971 76.1459 89.5714 76.7142 89.5714H89.5714C90.1397 89.5714 90.6847 89.7971 91.0866 90.199C91.4885 90.6008 91.7142 91.1459 91.7142 91.7142V95.9999H95.9999V91.7142C95.9999 90.0093 95.3226 88.3741 94.117 87.1685C92.9115 85.9629 91.2763 85.2856 89.5714 85.2856Z" fill="white"/>
<path d="M74.5714 74.5714C74.5714 76.2667 75.0741 77.9239 76.016 79.3335C76.9578 80.743 78.2965 81.8416 79.8627 82.4904C81.4289 83.1391 83.1523 83.3089 84.815 82.9782C86.4777 82.6474 88.005 81.8311 89.2038 80.6323C90.4025 79.4336 91.2188 77.9063 91.5496 76.2436C91.8803 74.5809 91.7106 72.8575 91.0618 71.2913C90.4131 69.7251 89.3144 68.3864 87.9049 67.4445C86.4953 66.5027 84.8381 66 83.1428 66C80.8696 66 78.6894 66.9031 77.0819 68.5105C75.4745 70.118 74.5714 72.2981 74.5714 74.5714ZM87.4286 74.5714C87.4286 75.4191 87.1772 76.2477 86.7063 76.9524C86.2354 77.6572 85.566 78.2065 84.7829 78.5309C83.9998 78.8553 83.1381 78.9402 82.3067 78.7748C81.4754 78.6094 80.7118 78.2013 80.1124 77.6019C79.513 77.0025 79.1048 76.2389 78.9395 75.4075C78.7741 74.5762 78.859 73.7145 79.1834 72.9314C79.5077 72.1482 80.057 71.4789 80.7618 71.008C81.4666 70.5371 82.2952 70.2857 83.1428 70.2857C84.2795 70.2857 85.3696 70.7372 86.1733 71.541C86.977 72.3447 87.4286 73.4348 87.4286 74.5714Z" fill="white"/>
<path d="M44.5714 76.7143V74.5714H40.2856V76.7143C40.2856 80.6925 41.866 84.5078 44.679 87.3209C47.4921 90.1339 51.3074 91.7143 55.2856 91.7143H61.7142V87.4286H55.2856C52.444 87.4286 49.7188 86.2997 47.7095 84.2904C45.7002 82.2811 44.5714 79.5559 44.5714 76.7143Z" fill="white"/>
<path d="M72.4286 53.1428H87.4286V57.4285H72.4286V53.1428Z" fill="white"/>
<path d="M72.4286 44.5714H93.8572V48.8571H72.4286V44.5714Z" fill="white"/>
<path d="M72.4286 36H93.8572V40.2857H72.4286V36Z" fill="white"/>
<path d="M55.2857 55.2856H42.4286C40.7236 55.2856 39.0885 55.9629 37.8829 57.1685C36.6773 58.3741 36 60.0093 36 61.7142V65.9999H40.2857V61.7142C40.2857 61.1459 40.5115 60.6009 40.9133 60.199C41.3152 59.7971 41.8603 59.5714 42.4286 59.5714H55.2857C55.854 59.5714 56.3991 59.7971 56.8009 60.199C57.2028 60.6009 57.4286 61.1459 57.4286 61.7142V65.9999H61.7143V61.7142C61.7143 60.0093 61.037 58.3741 59.8314 57.1685C58.6258 55.9629 56.9907 55.2856 55.2857 55.2856Z" fill="white"/>
<path d="M48.8571 53.1429C50.5523 53.1429 52.2095 52.6402 53.6191 51.6983C55.0287 50.7565 56.1273 49.4178 56.776 47.8516C57.4248 46.2854 57.5945 44.5619 57.2638 42.8992C56.9331 41.2365 56.1167 39.7093 54.918 38.5105C53.7193 37.3118 52.192 36.4954 50.5293 36.1647C48.8666 35.834 47.1432 36.0037 45.5769 36.6525C44.0107 37.3012 42.672 38.3998 41.7302 39.8094C40.7883 41.219 40.2856 42.8762 40.2856 44.5714C40.2856 46.8447 41.1887 49.0249 42.7962 50.6323C44.4036 52.2398 46.5838 53.1429 48.8571 53.1429ZM48.8571 40.2857C49.7047 40.2857 50.5333 40.5371 51.2381 41.008C51.9429 41.4789 52.4922 42.1482 52.8166 42.9314C53.1409 43.7145 53.2258 44.5762 53.0604 45.4075C52.8951 46.2389 52.4869 47.0025 51.8875 47.6019C51.2882 48.2013 50.5245 48.6094 49.6932 48.7748C48.8618 48.9402 48.0001 48.8553 47.217 48.5309C46.4339 48.2065 45.7646 47.6572 45.2936 46.9524C44.8227 46.2477 44.5714 45.4191 44.5714 44.5714C44.5714 43.4348 45.0229 42.3447 45.8266 41.541C46.6303 40.7372 47.7204 40.2857 48.8571 40.2857Z" fill="white"/>
</svg>
