<svg width="76" height="80" viewBox="0 0 76 80" fill="none" xmlns="http://www.w3.org/2000/svg">
<path d="M32 0L61.192 9.12C62.0062 9.37417 62.7178 9.88193 63.2229 10.5692C63.7281 11.2564 64.0004 12.0871 64 12.94V20H72C73.0609 20 74.0783 20.4214 74.8284 21.1716C75.5786 21.9217 76 22.9391 76 24V56C76 57.0609 75.5786 58.0783 74.8284 58.8284C74.0783 59.5786 73.0609 60 72 60L59.12 60.004C57.572 62.044 55.692 63.844 53.52 65.324L32 80L10.48 65.328C7.25009 63.1258 4.60701 60.168 2.78056 56.7117C0.954113 53.2554 -0.000404891 49.4052 1.28839e-07 45.496V12.94C0.000482425 12.0878 0.273147 11.258 0.778249 10.5715C1.28335 9.88512 1.99449 9.37797 2.808 9.124L32 0ZM32 8.376L8 15.88V45.496C7.99943 47.9449 8.561 50.3613 9.64146 52.5589C10.7219 54.7566 12.2924 56.6769 14.232 58.172L14.988 58.716L32 70.32L47.128 60H28C26.9391 60 25.9217 59.5786 25.1716 58.8284C24.4214 58.0783 24 57.0609 24 56V24C24 22.9391 24.4214 21.9217 25.1716 21.1716C25.9217 20.4214 26.9391 20 28 20H56V15.88L32 8.376ZM32 40V52H68V40H32ZM32 32H68V28H32V32Z" fill="#0A2342"/>
</svg>
