<svg width="70" height="70" viewBox="0 0 100 97" fill="none" xmlns="http://www.w3.org/2000/svg">
<path d="M93.9848 3.27427C77.9911 21.9014 61.9973 40.5283 46.0034 59.1554C39.7462 52.1919 33.4888 45.2284 27.2315 38.2648C24.1245 34.8072 19.0405 39.9181 22.1347 43.3616C29.2608 51.2918 36.3868 59.2222 43.5129 67.1527C44.7451 68.5239 47.3886 68.5748 48.6097 67.1527C65.4337 47.5587 82.2575 27.9649 99.0815 8.37094C102.089 4.86864 97.0129 -0.252243 93.9848 3.27427Z" fill="#2B872B"/>
<path d="M87.9978 34.6792C94.1028 54.3673 86.193 75.8087 67.4878 85.3186C50.7799 93.8131 29.7485 89.6983 17.4502 75.5681C5.11744 61.398 3.8774 40.122 14.5593 24.6465C27.0191 6.59502 51.1019 1.99583 69.9543 12.5523C74.0061 14.821 77.6444 8.5975 73.5923 6.32847C39.6531 -12.6757 -3.95104 13.4947 0.28674 53.2325C4.18864 89.8204 47.6306 109.588 77.5086 87.5626C94.6722 74.9098 101.207 52.9478 94.9481 32.7631C93.5786 28.3466 86.6184 30.2311 87.9978 34.6792Z" fill="#2B872B"/>
</svg>
